<?xml version="1.0" encoding="UTF-8" standalone="no"?>
<!-- Created with Inkscape (http://www.inkscape.org/) -->

<svg
   xmlns:dc="http://purl.org/dc/elements/1.1/"
   xmlns:cc="http://creativecommons.org/ns#"
   xmlns:rdf="http://www.w3.org/1999/02/22-rdf-syntax-ns#"
   xmlns:svg="http://www.w3.org/2000/svg"
   xmlns="http://www.w3.org/2000/svg"
   xmlns:sodipodi="http://sodipodi.sourceforge.net/DTD/sodipodi-0.dtd"
   xmlns:inkscape="http://www.inkscape.org/namespaces/inkscape"
   width="512"
   height="512"
   id="svg3428"
   version="1.1"
   inkscape:version="0.48.3.1 r9886"
   sodipodi:docname="disc.svg">
  <defs
     id="defs3430" />
  <sodipodi:namedview
     id="base"
     pagecolor="#ffffff"
     bordercolor="#666666"
     borderopacity="1.0"
     inkscape:pageopacity="0.0"
     inkscape:pageshadow="2"
     inkscape:zoom="0.7"
     inkscape:cx="269.75098"
     inkscape:cy="281.30241"
     inkscape:document-units="px"
     inkscape:current-layer="layer1"
     showgrid="true"
     inkscape:snap-bbox="true"
     inkscape:snap-nodes="true"
     inkscape:window-width="1167"
     inkscape:window-height="912"
     inkscape:window-x="2"
     inkscape:window-y="65"
     inkscape:window-maximized="0">
    <inkscape:grid
       type="xygrid"
       id="grid3436"
       empspacing="4"
       visible="true"
       enabled="true"
       snapvisiblegridlinesonly="true" />
  </sodipodi:namedview>
  <metadata
     id="metadata3433">
    <rdf:RDF>
      <cc:Work
         rdf:about="">
        <dc:format>image/svg+xml</dc:format>
        <dc:type
           rdf:resource="http://purl.org/dc/dcmitype/StillImage" />
        <dc:title></dc:title>
      </cc:Work>
    </rdf:RDF>
  </metadata>
  <g
     inkscape:label="Layer 1"
     inkscape:groupmode="layer"
     id="layer1"
     transform="translate(0,-540.36218)">
    <path
       style="color:#000000;fill:#000000;fill-opacity:1;fill-rule:nonzero;stroke:none;stroke-width:0.80000001;marker:none;visibility:visible;display:inline;overflow:visible;enable-background:accumulate"
       d="m 256,636.36218 c -114.87524,0 -208,93.12477 -208,208 0,114.87524 93.12476,208.00002 208,208.00002 114.87524,0 208,-93.12478 208,-208.00002 0,-114.87523 -93.12476,-208 -208,-208 z m 0,48 c 95.72936,0 160,64.27065 160,160 0,95.72936 -64.27064,160.00002 -160,160.00002 -95.72935,0 -160,-64.27066 -160,-160.00002 0,-95.72935 64.27065,-160 160,-160 z"
       id="path3438-4"
       inkscape:connector-curvature="0"
       sodipodi:nodetypes="ssssssssss" />
    <path
       style="color:#000000;fill:#000000;fill-opacity:1;fill-rule:nonzero;stroke:none;stroke-width:0.80000001;marker:none;visibility:visible;display:inline;overflow:visible;enable-background:accumulate"
       d="M 256,0 C 141.12476,0 48,93.12477 48,208 48,249.24317 60.014357,287.69841 80.71875,320.03125 80.241715,314.74972 80,309.40576 80,304 80,285.57607 82.843162,267.81528 88.09375,251.125 84.561851,237.33459 96,222.89152 96,208 96,112.27065 160.27065,48 256,48 c 95.72936,0 160,64.27065 160,160 0,14.89152 11.43815,29.33459 7.90625,43.125 C 429.15684,267.81528 432,285.57607 432,304 c 0,5.40576 -0.24171,10.74972 -0.71875,16.03125 C 451.98564,287.69841 464,249.24317 464,208 464,93.12477 370.87524,0 256,0 z"
       transform="translate(0,540.36218)"
       id="path3438"
       inkscape:connector-curvature="0"
       sodipodi:nodetypes="sscscssscscss" />
    <path
       sodipodi:type="arc"
       style="color:#000000;fill:#000000;fill-opacity:1;fill-rule:nonzero;stroke:none;stroke-width:0.80000001;marker:none;visibility:visible;display:inline;overflow:visible;enable-background:accumulate"
       id="path4287"
       sodipodi:cx="255.71428"
       sodipodi:cy="306.28571"
       sodipodi:rx="48.57143"
       sodipodi:ry="48.57143"
       d="m 304.28571,306.28571 a 48.57143,48.57143 0 1 1 -97.14286,0 48.57143,48.57143 0 1 1 97.14286,0 z"
       transform="translate(0.85715103,538.6479)" />
  </g>
</svg>
