<?xml version="1.0" encoding="UTF-8" standalone="no"?>
<!-- Created with Inkscape (http://www.inkscape.org/) -->

<svg
   xmlns:dc="http://purl.org/dc/elements/1.1/"
   xmlns:cc="http://creativecommons.org/ns#"
   xmlns:rdf="http://www.w3.org/1999/02/22-rdf-syntax-ns#"
   xmlns:svg="http://www.w3.org/2000/svg"
   xmlns="http://www.w3.org/2000/svg"
   xmlns:sodipodi="http://sodipodi.sourceforge.net/DTD/sodipodi-0.dtd"
   xmlns:inkscape="http://www.inkscape.org/namespaces/inkscape"
   width="512"
   height="512"
   id="svg3870"
   version="1.1"
   inkscape:version="0.48.3.1 r9886"
   sodipodi:docname="line.svg">
  <defs
     id="defs3872" />
  <sodipodi:namedview
     id="base"
     pagecolor="#ffffff"
     bordercolor="#666666"
     borderopacity="1.0"
     inkscape:pageopacity="0.0"
     inkscape:pageshadow="2"
     inkscape:zoom="0.98994949"
     inkscape:cx="116.24962"
     inkscape:cy="268.26174"
     inkscape:document-units="px"
     inkscape:current-layer="layer1"
     showgrid="true"
     inkscape:window-width="1024"
     inkscape:window-height="778"
     inkscape:window-x="286"
     inkscape:window-y="132"
     inkscape:window-maximized="0"
     inkscape:snap-nodes="false"
     inkscape:snap-bbox="true">
    <inkscape:grid
       type="xygrid"
       id="grid3202"
       empspacing="4"
       visible="true"
       enabled="true"
       snapvisiblegridlinesonly="true" />
  </sodipodi:namedview>
  <metadata
     id="metadata3875">
    <rdf:RDF>
      <cc:Work
         rdf:about="">
        <dc:format>image/svg+xml</dc:format>
        <dc:type
           rdf:resource="http://purl.org/dc/dcmitype/StillImage" />
        <dc:title />
      </cc:Work>
    </rdf:RDF>
  </metadata>
  <g
     inkscape:label="Layer 1"
     inkscape:groupmode="layer"
     id="layer1"
     transform="translate(0,-540.36218)">
    <path
       style="color:#000000;fill:#000000;fill-opacity:1;fill-rule:nonzero;stroke:none;stroke-width:10;marker:none;visibility:visible;display:inline;overflow:visible;enable-background:accumulate"
       d="M 97.068762,540.36218 C 43.454754,540.36218 0,583.81696 0,637.43094 c 0,53.61399 43.454754,97.06876 97.068762,97.06876 14.960278,0 29.088838,-3.26006 41.744598,-9.30451 l 188.35363,188.35363 c -5.734,12.38698 -9.30451,26.19171 -9.30451,40.7387 0,53.61398 43.45475,97.06878 97.06876,97.06878 53.61401,0 97.06876,-43.4548 97.06876,-97.06878 0,-53.61398 -43.45475,-97.06876 -97.06876,-97.06876 -13.72151,0 -26.6422,2.91186 -38.47544,8.04715 L 186.59332,675.40344 c 4.91235,-11.61413 7.5442,-24.569 7.5442,-37.9725 0,-53.61398 -43.45475,-97.06876 -97.068758,-97.06876 z"
       id="path2987"
       inkscape:connector-curvature="0" />
  </g>
</svg>
